<svg xmlns="http://www.w3.org/2000/svg" xmlns:xlink="http://www.w3.org/1999/xlink" width="563" zoomAndPan="magnify" viewBox="0 0 422.25 215.999996" height="288" preserveAspectRatio="xMidYMid meet" version="1.0"><defs><g/></defs><g fill="#ffb800" fill-opacity="1"><g transform="translate(29.292483, 137.824691)"><g><path d="M 119 -77.59375 C 126.082031 -72.695312 129.625 -67.015625 129.625 -60.546875 C 129.625 -57.835938 128.988281 -55.28125 127.71875 -52.875 C 126.445312 -50.476562 124.738281 -48.40625 122.59375 -46.65625 C 120.457031 -44.90625 117.925781 -43.503906 115 -42.453125 C 112.070312 -41.410156 108.953125 -40.890625 105.640625 -40.890625 C 104.671875 -40.890625 103.6875 -40.953125 102.6875 -41.078125 C 101.6875 -41.210938 100.75 -41.390625 99.875 -41.609375 C 99 -41.828125 98.273438 -42.066406 97.703125 -42.328125 C 97.140625 -42.585938 96.859375 -42.851562 96.859375 -43.125 C 96.859375 -43.46875 97.03125 -43.640625 97.375 -43.640625 C 97.46875 -43.640625 97.554688 -43.617188 97.640625 -43.578125 C 97.722656 -43.535156 97.941406 -43.425781 98.296875 -43.25 C 99.171875 -42.8125 100.21875 -42.484375 101.4375 -42.265625 C 102.664062 -42.046875 103.847656 -41.9375 104.984375 -41.9375 C 107.597656 -41.9375 110.039062 -42.484375 112.3125 -43.578125 C 114.59375 -44.671875 116.582031 -46.175781 118.28125 -48.09375 C 119.988281 -50.019531 121.34375 -52.226562 122.34375 -54.71875 C 123.351562 -57.207031 123.859375 -59.894531 123.859375 -62.78125 C 123.859375 -65.394531 123.289062 -67.90625 122.15625 -70.3125 C 121.019531 -72.71875 119.445312 -74.796875 117.4375 -76.546875 C 114.632812 -74.441406 112.117188 -72.207031 109.890625 -69.84375 C 107.660156 -67.488281 105.429688 -64.648438 103.203125 -61.328125 C 100.984375 -58.015625 98.671875 -54.019531 96.265625 -49.34375 C 93.859375 -44.664062 91.082031 -38.960938 87.9375 -32.234375 C 86.28125 -28.828125 84.535156 -25.722656 82.703125 -22.921875 C 80.867188 -20.128906 78.835938 -17.597656 76.609375 -15.328125 C 74.378906 -13.054688 71.929688 -10.984375 69.265625 -9.109375 C 66.597656 -7.234375 63.601562 -5.460938 60.28125 -3.796875 C 51.632812 0.484375 43.816406 2.625 36.828125 2.625 C 30.097656 2.625 24.765625 0.941406 20.828125 -2.421875 C 16.898438 -5.785156 14.9375 -10.351562 14.9375 -16.125 C 14.9375 -21.1875 16.816406 -26.382812 20.578125 -31.71875 C 20.398438 -32.238281 20.3125 -32.671875 20.3125 -33.015625 C 20.3125 -33.367188 20.3125 -33.765625 20.3125 -34.203125 C 20.3125 -38.578125 21.1875 -42.878906 22.9375 -47.109375 C 24.6875 -51.347656 27.132812 -55.390625 30.28125 -59.234375 C 33.425781 -63.078125 37.113281 -66.640625 41.34375 -69.921875 C 45.582031 -73.203125 50.191406 -76.039062 55.171875 -78.4375 C 60.148438 -80.84375 65.390625 -82.722656 70.890625 -84.078125 C 76.398438 -85.429688 82 -86.109375 87.6875 -86.109375 C 93.445312 -86.109375 98.945312 -85.429688 104.1875 -84.078125 C 109.4375 -82.722656 114.023438 -80.78125 117.953125 -78.25 C 122.054688 -80.78125 125.769531 -82.613281 129.09375 -83.75 C 132.414062 -84.882812 135.738281 -85.453125 139.0625 -85.453125 C 141.769531 -85.453125 144.257812 -84.992188 146.53125 -84.078125 C 148.800781 -83.160156 150.765625 -81.890625 152.421875 -80.265625 C 154.085938 -78.648438 155.378906 -76.707031 156.296875 -74.4375 C 157.210938 -72.164062 157.671875 -69.722656 157.671875 -67.109375 C 157.671875 -65.878906 157.625 -64.648438 157.53125 -63.421875 C 157.445312 -62.203125 157.296875 -61.113281 157.078125 -60.15625 C 156.859375 -59.195312 156.640625 -58.410156 156.421875 -57.796875 C 156.203125 -57.179688 155.960938 -56.875 155.703125 -56.875 C 155.441406 -56.875 155.3125 -57.050781 155.3125 -57.40625 C 155.3125 -57.75 155.351562 -58.097656 155.4375 -58.453125 C 155.875 -60.023438 156.15625 -61.378906 156.28125 -62.515625 C 156.414062 -63.648438 156.484375 -64.914062 156.484375 -66.3125 C 156.484375 -71.820312 154.890625 -76.191406 151.703125 -79.421875 C 148.515625 -82.648438 144.210938 -84.265625 138.796875 -84.265625 C 135.734375 -84.265625 132.585938 -83.71875 129.359375 -82.625 C 126.128906 -81.539062 122.675781 -79.863281 119 -77.59375 Z M 116.390625 -77.328125 C 113.148438 -79.679688 108.992188 -81.535156 103.921875 -82.890625 C 98.859375 -84.242188 93.488281 -84.921875 87.8125 -84.921875 C 80.300781 -84.921875 72.960938 -83.585938 65.796875 -80.921875 C 58.628906 -78.265625 52.117188 -74.660156 46.265625 -70.109375 C 40.410156 -65.566406 35.453125 -60.28125 31.390625 -54.25 C 27.328125 -48.226562 24.679688 -41.894531 23.453125 -35.25 C 25.554688 -37.4375 28.179688 -39.46875 31.328125 -41.34375 C 34.472656 -43.226562 37.53125 -44.5625 40.5 -45.34375 C 42.15625 -48.3125 44.117188 -51.019531 46.390625 -53.46875 C 48.660156 -55.914062 51.039062 -58.015625 53.53125 -59.765625 C 56.03125 -61.515625 58.609375 -62.867188 61.265625 -63.828125 C 63.929688 -64.785156 66.53125 -65.265625 69.0625 -65.265625 C 72.125 -65.265625 74.640625 -64.28125 76.609375 -62.3125 C 78.578125 -60.351562 79.5625 -57.800781 79.5625 -54.65625 C 79.5625 -50.988281 78.507812 -46.96875 76.40625 -42.59375 C 74.3125 -38.226562 71.429688 -33.945312 67.765625 -29.75 C 58.328125 -19.269531 48.800781 -14.03125 39.1875 -14.03125 C 34.207031 -14.03125 30.125 -15.425781 26.9375 -18.21875 C 23.75 -21.007812 21.671875 -24.941406 20.703125 -30.015625 C 17.648438 -25.296875 16.125 -20.707031 16.125 -16.25 C 16.125 -10.75 17.957031 -6.398438 21.625 -3.203125 C 25.289062 -0.015625 30.269531 1.578125 36.5625 1.578125 C 40.5 1.578125 44.210938 1.007812 47.703125 -0.125 C 51.203125 -1.257812 54.632812 -3.070312 58 -5.5625 C 61.363281 -8.0625 64.679688 -11.316406 67.953125 -15.328125 C 71.234375 -19.347656 74.664062 -24.195312 78.25 -29.875 C 82.257812 -36.4375 85.925781 -42.179688 89.25 -47.109375 C 92.570312 -52.046875 95.738281 -56.367188 98.75 -60.078125 C 101.769531 -63.796875 104.695312 -67.03125 107.53125 -69.78125 C 110.375 -72.539062 113.328125 -75.054688 116.390625 -77.328125 Z M 23.203125 -31.1875 C 23.203125 -26.207031 24.640625 -22.273438 27.515625 -19.390625 C 30.398438 -16.515625 34.289062 -15.078125 39.1875 -15.078125 C 44.257812 -15.078125 49.367188 -16.625 54.515625 -19.71875 C 59.671875 -22.820312 64.476562 -27.257812 68.9375 -33.03125 C 72 -36.875 74.335938 -40.648438 75.953125 -44.359375 C 77.566406 -48.078125 78.375 -51.507812 78.375 -54.65625 C 78.375 -57.363281 77.539062 -59.632812 75.875 -61.46875 C 74.21875 -63.300781 72.164062 -64.21875 69.71875 -64.21875 C 65.707031 -64.21875 61.492188 -62.597656 57.078125 -59.359375 C 52.660156 -56.128906 48.660156 -51.765625 45.078125 -46.265625 C 45.609375 -46.441406 46.066406 -46.53125 46.453125 -46.53125 C 46.847656 -46.53125 47.351562 -46.53125 47.96875 -46.53125 C 51.894531 -46.53125 55.015625 -45.65625 57.328125 -43.90625 C 59.648438 -42.15625 60.8125 -39.796875 60.8125 -36.828125 C 60.8125 -35.609375 60.632812 -35 60.28125 -35 C 59.9375 -35 59.765625 -35.429688 59.765625 -36.296875 C 59.847656 -39.097656 58.773438 -41.328125 56.546875 -42.984375 C 54.328125 -44.648438 51.335938 -45.484375 47.578125 -45.484375 C 47.054688 -45.484375 46.550781 -45.457031 46.0625 -45.40625 C 45.582031 -45.363281 45.039062 -45.300781 44.4375 -45.21875 C 41.375 -39.800781 39.84375 -35.171875 39.84375 -31.328125 C 39.84375 -29.492188 40.34375 -27.960938 41.34375 -26.734375 C 42.351562 -25.515625 43.597656 -24.90625 45.078125 -24.90625 C 45.347656 -24.90625 45.523438 -24.945312 45.609375 -25.03125 L 46 -25.03125 C 46.257812 -25.03125 46.390625 -24.898438 46.390625 -24.640625 C 46.390625 -24.203125 45.953125 -23.984375 45.078125 -23.984375 C 42.898438 -23.984375 41.066406 -24.988281 39.578125 -27 C 38.097656 -29.007812 37.359375 -31.539062 37.359375 -34.59375 C 37.359375 -37.570312 38.1875 -40.765625 39.84375 -44.171875 C 36.78125 -43.203125 33.785156 -41.753906 30.859375 -39.828125 C 27.929688 -37.910156 25.378906 -35.6875 23.203125 -33.15625 Z M 23.203125 -31.1875 "/></g></g></g><g fill="#ffb800" fill-opacity="1"><g transform="translate(128.761332, 137.824691)"><g><path d="M 18.609375 -16.125 C 23.847656 -24.59375 26.46875 -29.878906 26.46875 -31.984375 C 26.46875 -33.203125 25.988281 -33.8125 25.03125 -33.8125 C 24.507812 -33.8125 23.789062 -33.441406 22.875 -32.703125 C 21.957031 -31.960938 20.90625 -30.976562 19.71875 -29.75 C 18.539062 -28.53125 17.296875 -27.085938 15.984375 -25.421875 C 14.679688 -23.765625 13.375 -21.972656 12.0625 -20.046875 C 11.53125 -19.441406 11.179688 -19.140625 11.015625 -19.140625 C 10.835938 -19.140625 10.75 -19.269531 10.75 -19.53125 C 10.75 -19.707031 10.835938 -19.878906 11.015625 -20.046875 L 12.1875 -21.625 C 15.15625 -25.90625 17.773438 -29.160156 20.046875 -31.390625 C 22.316406 -33.617188 24.15625 -34.734375 25.5625 -34.734375 C 27.039062 -34.734375 28.257812 -34.117188 29.21875 -32.890625 C 30.1875 -31.671875 30.671875 -30.097656 30.671875 -28.171875 C 30.671875 -26.429688 30.273438 -24.554688 29.484375 -22.546875 C 28.703125 -20.535156 27.347656 -18.046875 25.421875 -15.078125 C 26.648438 -16.554688 27.722656 -17.734375 28.640625 -18.609375 C 29.554688 -19.484375 30.582031 -20.398438 31.71875 -21.359375 C 33.375 -25.203125 35.40625 -28.390625 37.8125 -30.921875 C 40.21875 -33.460938 42.378906 -34.734375 44.296875 -34.734375 C 44.816406 -34.734375 45.273438 -34.554688 45.671875 -34.203125 C 46.066406 -33.859375 46.265625 -33.46875 46.265625 -33.03125 C 46.265625 -31.019531 43.296875 -28.09375 37.359375 -24.25 C 36.648438 -23.8125 35.945312 -23.375 35.25 -22.9375 C 34.550781 -22.5 33.851562 -22.0625 33.15625 -21.625 L 32.375 -20.96875 C 31.757812 -19.050781 31.453125 -17.4375 31.453125 -16.125 C 31.453125 -14.457031 31.820312 -13.144531 32.5625 -12.1875 C 33.3125 -11.226562 34.296875 -10.75 35.515625 -10.75 C 37.003906 -10.75 38.753906 -11.488281 40.765625 -12.96875 C 42.773438 -14.457031 44.648438 -16.46875 46.390625 -19 C 47.265625 -19.96875 47.789062 -20.453125 47.96875 -20.453125 C 48.226562 -20.453125 48.359375 -20.316406 48.359375 -20.046875 C 48.359375 -19.878906 47.960938 -19.3125 47.171875 -18.34375 C 46.390625 -17.382812 45.519531 -16.378906 44.5625 -15.328125 C 41.238281 -11.742188 38.179688 -9.953125 35.390625 -9.953125 C 33.992188 -9.953125 32.832031 -10.476562 31.90625 -11.53125 C 30.988281 -12.582031 30.53125 -13.9375 30.53125 -15.59375 C 30.53125 -16.820312 30.796875 -18.351562 31.328125 -20.1875 C 30.015625 -18.957031 28.851562 -17.835938 27.84375 -16.828125 C 26.84375 -15.828125 25.816406 -14.609375 24.765625 -13.171875 C 23.722656 -11.734375 22.523438 -9.921875 21.171875 -7.734375 C 19.816406 -5.546875 18.085938 -2.660156 15.984375 0.921875 C 15.109375 0.828125 14.410156 0.757812 13.890625 0.71875 C 13.367188 0.675781 12.757812 0.65625 12.0625 0.65625 C 11.445312 0.65625 10.875 0.675781 10.34375 0.71875 C 9.820312 0.757812 9.082031 0.828125 8.125 0.921875 Z M 18.609375 -16.125 "/></g></g></g><g fill="#ffb800" fill-opacity="1"><g transform="translate(165.193925, 137.824691)"><g><path d="M 40.234375 -14.9375 C 36.035156 -9.695312 31.972656 -5.65625 28.046875 -2.8125 C 24.117188 0.0195312 20.625 1.4375 17.5625 1.4375 C 14.5 1.4375 11.960938 0.367188 9.953125 -1.765625 C 7.953125 -3.910156 6.953125 -6.597656 6.953125 -9.828125 C 6.953125 -17.429688 12.320312 -24.203125 23.0625 -30.140625 C 28.75 -33.203125 33.335938 -34.734375 36.828125 -34.734375 C 38.316406 -34.734375 39.601562 -34.273438 40.6875 -33.359375 C 41.78125 -32.441406 42.328125 -31.328125 42.328125 -30.015625 C 42.328125 -26.953125 40.335938 -24.347656 36.359375 -22.203125 C 32.390625 -20.066406 25.6875 -18.039062 16.25 -16.125 C 15.03125 -14.195312 14.003906 -12.226562 13.171875 -10.21875 C 12.335938 -8.207031 11.921875 -6.503906 11.921875 -5.109375 C 11.921875 -3.453125 12.46875 -2.117188 13.5625 -1.109375 C 14.65625 -0.109375 16.078125 0.390625 17.828125 0.390625 C 20.972656 0.390625 24.75 -1.351562 29.15625 -4.84375 C 33.570312 -8.34375 38.050781 -13.191406 42.59375 -19.390625 C 43.207031 -20.097656 43.644531 -20.453125 43.90625 -20.453125 C 44.082031 -20.453125 44.171875 -20.316406 44.171875 -20.046875 C 44.171875 -19.960938 43.773438 -19.394531 42.984375 -18.34375 Z M 16.78125 -17.03125 C 19.832031 -17.820312 22.710938 -18.804688 25.421875 -19.984375 C 28.128906 -21.160156 30.46875 -22.40625 32.4375 -23.71875 C 34.40625 -25.03125 35.957031 -26.382812 37.09375 -27.78125 C 38.226562 -29.175781 38.796875 -30.53125 38.796875 -31.84375 C 38.796875 -33.238281 38.050781 -33.9375 36.5625 -33.9375 C 35.425781 -33.9375 34.09375 -33.519531 32.5625 -32.6875 C 31.039062 -31.863281 29.40625 -30.707031 27.65625 -29.21875 C 25.90625 -27.738281 24.085938 -25.945312 22.203125 -23.84375 C 20.328125 -21.75 18.519531 -19.476562 16.78125 -17.03125 Z M 16.78125 -17.03125 "/></g></g></g><g fill="#ffb800" fill-opacity="1"><g transform="translate(197.432836, 137.824691)"><g><path d="M 17.171875 -13.5 C 20.398438 -18.5625 22.78125 -22.578125 24.3125 -25.546875 C 25.84375 -28.523438 26.609375 -30.625 26.609375 -31.84375 C 26.609375 -33.15625 26.125 -33.8125 25.15625 -33.8125 C 23.0625 -33.8125 18.738281 -29.222656 12.1875 -20.046875 C 11.664062 -19.441406 11.316406 -19.140625 11.140625 -19.140625 C 10.960938 -19.140625 10.875 -19.269531 10.875 -19.53125 C 10.875 -19.613281 11.046875 -19.894531 11.390625 -20.375 C 11.742188 -20.851562 12.203125 -21.484375 12.765625 -22.265625 C 13.335938 -23.054688 13.972656 -23.910156 14.671875 -24.828125 C 15.378906 -25.753906 16.082031 -26.648438 16.78125 -27.515625 C 18.957031 -30.316406 20.679688 -32.21875 21.953125 -33.21875 C 23.222656 -34.226562 24.46875 -34.734375 25.6875 -34.734375 C 27.082031 -34.734375 28.257812 -34.078125 29.21875 -32.765625 C 30.1875 -31.453125 30.671875 -29.921875 30.671875 -28.171875 C 30.671875 -25.734375 29.40625 -22.285156 26.875 -17.828125 C 29.050781 -20.972656 30.96875 -23.632812 32.625 -25.8125 C 34.289062 -28 35.800781 -29.75 37.15625 -31.0625 C 38.507812 -32.375 39.734375 -33.3125 40.828125 -33.875 C 41.921875 -34.445312 42.988281 -34.734375 44.03125 -34.734375 C 45.78125 -34.734375 47.242188 -34.007812 48.421875 -32.5625 C 49.609375 -31.125 50.203125 -29.3125 50.203125 -27.125 C 50.203125 -25.644531 49.984375 -24.289062 49.546875 -23.0625 C 49.109375 -21.84375 48.191406 -20.097656 46.796875 -17.828125 C 51.335938 -24.117188 54.960938 -28.507812 57.671875 -31 C 60.378906 -33.488281 62.820312 -34.734375 65 -34.734375 C 66.84375 -34.734375 68.394531 -33.945312 69.65625 -32.375 C 70.925781 -30.800781 71.5625 -28.878906 71.5625 -26.609375 C 71.5625 -25.554688 71.472656 -24.613281 71.296875 -23.78125 C 71.117188 -22.957031 70.722656 -21.929688 70.109375 -20.703125 C 69.503906 -19.484375 68.632812 -17.976562 67.5 -16.1875 C 66.363281 -14.394531 64.832031 -12.054688 62.90625 -9.171875 C 61.6875 -7.421875 60.859375 -6.039062 60.421875 -5.03125 C 59.984375 -4.03125 59.765625 -3.050781 59.765625 -2.09375 C 59.765625 -0.34375 60.640625 0.53125 62.390625 0.53125 C 63.960938 0.53125 66.054688 -0.753906 68.671875 -3.328125 C 71.296875 -5.910156 74.707031 -10 78.90625 -15.59375 L 80.859375 -18.34375 L 82.046875 -19.796875 C 82.222656 -20.234375 82.441406 -20.453125 82.703125 -20.453125 C 82.960938 -20.453125 83.09375 -20.316406 83.09375 -20.046875 C 83.09375 -19.878906 82.875 -19.53125 82.4375 -19 L 79.6875 -15.203125 C 75.40625 -9.347656 71.863281 -5.109375 69.0625 -2.484375 C 66.269531 0.128906 63.867188 1.4375 61.859375 1.4375 C 59.847656 1.4375 58.207031 0.695312 56.9375 -0.78125 C 55.675781 -2.269531 55.046875 -4.191406 55.046875 -6.546875 C 55.046875 -7.515625 55.109375 -8.390625 55.234375 -9.171875 C 55.367188 -9.960938 55.695312 -10.859375 56.21875 -11.859375 C 56.75 -12.867188 57.472656 -14.09375 58.390625 -15.53125 C 59.304688 -16.96875 60.550781 -18.820312 62.125 -21.09375 C 64.132812 -23.894531 65.53125 -26.035156 66.3125 -27.515625 C 67.101562 -29.003906 67.5 -30.226562 67.5 -31.1875 C 67.5 -32.9375 66.625 -33.8125 64.875 -33.8125 C 63.382812 -33.8125 61.722656 -33.132812 59.890625 -31.78125 C 58.054688 -30.425781 55.957031 -28.347656 53.59375 -25.546875 C 51.238281 -22.753906 48.597656 -19.171875 45.671875 -14.796875 C 42.742188 -10.429688 39.488281 -5.191406 35.90625 0.921875 C 35.207031 0.742188 34.617188 0.65625 34.140625 0.65625 C 33.660156 0.65625 33.070312 0.65625 32.375 0.65625 C 31.582031 0.65625 30.878906 0.65625 30.265625 0.65625 C 29.660156 0.65625 28.878906 0.742188 27.921875 0.921875 L 36.953125 -13.5 C 40.191406 -18.738281 42.488281 -22.644531 43.84375 -25.21875 C 45.195312 -27.800781 45.875 -29.707031 45.875 -30.9375 C 45.875 -32.851562 45.085938 -33.8125 43.515625 -33.8125 C 42.285156 -33.8125 40.664062 -32.914062 38.65625 -31.125 C 36.65625 -29.332031 34.429688 -26.863281 31.984375 -23.71875 C 29.535156 -20.570312 26.929688 -16.878906 24.171875 -12.640625 C 21.421875 -8.410156 18.738281 -3.890625 16.125 0.921875 C 15.425781 0.742188 14.8125 0.65625 14.28125 0.65625 C 13.757812 0.65625 13.101562 0.65625 12.3125 0.65625 C 11.53125 0.65625 10.851562 0.65625 10.28125 0.65625 C 9.71875 0.65625 8.957031 0.742188 8 0.921875 Z M 17.171875 -13.5 "/></g></g></g><g fill="#ffb800" fill-opacity="1"><g transform="translate(268.725398, 137.824691)"><g><path d="M 12.84375 -10.359375 C 10.75 -7.035156 9.703125 -4.367188 9.703125 -2.359375 C 9.703125 -0.429688 10.707031 0.53125 12.71875 0.53125 C 14.726562 0.53125 17.347656 -1.128906 20.578125 -4.453125 C 23.804688 -7.773438 27.867188 -12.890625 32.765625 -19.796875 C 32.941406 -20.234375 33.160156 -20.453125 33.421875 -20.453125 C 33.679688 -20.453125 33.8125 -20.316406 33.8125 -20.046875 C 33.8125 -19.878906 33.59375 -19.53125 33.15625 -19 L 30.40625 -15.203125 C 26.125 -9.265625 22.5625 -5.003906 19.71875 -2.421875 C 16.882812 0.148438 14.332031 1.4375 12.0625 1.4375 C 10.050781 1.4375 8.367188 0.738281 7.015625 -0.65625 C 5.660156 -2.050781 4.984375 -3.84375 4.984375 -6.03125 C 4.984375 -7.507812 5.285156 -9.054688 5.890625 -10.671875 C 6.503906 -12.296875 7.6875 -14.503906 9.4375 -17.296875 L 19.390625 -34.203125 C 20.097656 -34.023438 20.644531 -33.914062 21.03125 -33.875 C 21.425781 -33.832031 21.929688 -33.8125 22.546875 -33.8125 C 23.421875 -33.8125 24.179688 -33.832031 24.828125 -33.875 C 25.484375 -33.914062 26.335938 -34.023438 27.390625 -34.203125 Z M 30.140625 -49.28125 C 30.929688 -49.28125 31.585938 -49.015625 32.109375 -48.484375 C 32.628906 -47.960938 32.890625 -47.3125 32.890625 -46.53125 C 32.890625 -45.039062 32.253906 -43.640625 30.984375 -42.328125 C 29.722656 -41.023438 28.351562 -40.375 26.875 -40.375 C 24.945312 -40.375 23.984375 -41.332031 23.984375 -43.25 C 23.984375 -44.738281 24.640625 -46.113281 25.953125 -47.375 C 27.265625 -48.644531 28.660156 -49.28125 30.140625 -49.28125 Z M 30.140625 -49.28125 "/></g></g></g><g fill="#ffb800" fill-opacity="1"><g transform="translate(290.742214, 137.824691)"><g><path d="M 40.234375 -14.9375 C 36.035156 -9.695312 31.972656 -5.65625 28.046875 -2.8125 C 24.117188 0.0195312 20.625 1.4375 17.5625 1.4375 C 14.5 1.4375 11.960938 0.367188 9.953125 -1.765625 C 7.953125 -3.910156 6.953125 -6.597656 6.953125 -9.828125 C 6.953125 -17.429688 12.320312 -24.203125 23.0625 -30.140625 C 28.75 -33.203125 33.335938 -34.734375 36.828125 -34.734375 C 38.316406 -34.734375 39.601562 -34.273438 40.6875 -33.359375 C 41.78125 -32.441406 42.328125 -31.328125 42.328125 -30.015625 C 42.328125 -26.953125 40.335938 -24.347656 36.359375 -22.203125 C 32.390625 -20.066406 25.6875 -18.039062 16.25 -16.125 C 15.03125 -14.195312 14.003906 -12.226562 13.171875 -10.21875 C 12.335938 -8.207031 11.921875 -6.503906 11.921875 -5.109375 C 11.921875 -3.453125 12.46875 -2.117188 13.5625 -1.109375 C 14.65625 -0.109375 16.078125 0.390625 17.828125 0.390625 C 20.972656 0.390625 24.75 -1.351562 29.15625 -4.84375 C 33.570312 -8.34375 38.050781 -13.191406 42.59375 -19.390625 C 43.207031 -20.097656 43.644531 -20.453125 43.90625 -20.453125 C 44.082031 -20.453125 44.171875 -20.316406 44.171875 -20.046875 C 44.171875 -19.960938 43.773438 -19.394531 42.984375 -18.34375 Z M 16.78125 -17.03125 C 19.832031 -17.820312 22.710938 -18.804688 25.421875 -19.984375 C 28.128906 -21.160156 30.46875 -22.40625 32.4375 -23.71875 C 34.40625 -25.03125 35.957031 -26.382812 37.09375 -27.78125 C 38.226562 -29.175781 38.796875 -30.53125 38.796875 -31.84375 C 38.796875 -33.238281 38.050781 -33.9375 36.5625 -33.9375 C 35.425781 -33.9375 34.09375 -33.519531 32.5625 -32.6875 C 31.039062 -31.863281 29.40625 -30.707031 27.65625 -29.21875 C 25.90625 -27.738281 24.085938 -25.945312 22.203125 -23.84375 C 20.328125 -21.75 18.519531 -19.476562 16.78125 -17.03125 Z M 16.78125 -17.03125 "/></g></g></g><g fill="#ffb800" fill-opacity="1"><g transform="translate(322.981126, 137.824691)"><g><path d="M 18.609375 -16.125 C 23.847656 -24.59375 26.46875 -29.878906 26.46875 -31.984375 C 26.46875 -33.203125 25.988281 -33.8125 25.03125 -33.8125 C 24.507812 -33.8125 23.789062 -33.441406 22.875 -32.703125 C 21.957031 -31.960938 20.90625 -30.976562 19.71875 -29.75 C 18.539062 -28.53125 17.296875 -27.085938 15.984375 -25.421875 C 14.679688 -23.765625 13.375 -21.972656 12.0625 -20.046875 C 11.53125 -19.441406 11.179688 -19.140625 11.015625 -19.140625 C 10.835938 -19.140625 10.75 -19.269531 10.75 -19.53125 C 10.75 -19.707031 10.835938 -19.878906 11.015625 -20.046875 L 12.1875 -21.625 C 15.15625 -25.90625 17.773438 -29.160156 20.046875 -31.390625 C 22.316406 -33.617188 24.15625 -34.734375 25.5625 -34.734375 C 27.039062 -34.734375 28.257812 -34.117188 29.21875 -32.890625 C 30.1875 -31.671875 30.671875 -30.097656 30.671875 -28.171875 C 30.671875 -26.429688 30.273438 -24.554688 29.484375 -22.546875 C 28.703125 -20.535156 27.347656 -18.046875 25.421875 -15.078125 C 26.648438 -16.554688 27.722656 -17.734375 28.640625 -18.609375 C 29.554688 -19.484375 30.582031 -20.398438 31.71875 -21.359375 C 33.375 -25.203125 35.40625 -28.390625 37.8125 -30.921875 C 40.21875 -33.460938 42.378906 -34.734375 44.296875 -34.734375 C 44.816406 -34.734375 45.273438 -34.554688 45.671875 -34.203125 C 46.066406 -33.859375 46.265625 -33.46875 46.265625 -33.03125 C 46.265625 -31.019531 43.296875 -28.09375 37.359375 -24.25 C 36.648438 -23.8125 35.945312 -23.375 35.25 -22.9375 C 34.550781 -22.5 33.851562 -22.0625 33.15625 -21.625 L 32.375 -20.96875 C 31.757812 -19.050781 31.453125 -17.4375 31.453125 -16.125 C 31.453125 -14.457031 31.820312 -13.144531 32.5625 -12.1875 C 33.3125 -11.226562 34.296875 -10.75 35.515625 -10.75 C 37.003906 -10.75 38.753906 -11.488281 40.765625 -12.96875 C 42.773438 -14.457031 44.648438 -16.46875 46.390625 -19 C 47.265625 -19.96875 47.789062 -20.453125 47.96875 -20.453125 C 48.226562 -20.453125 48.359375 -20.316406 48.359375 -20.046875 C 48.359375 -19.878906 47.960938 -19.3125 47.171875 -18.34375 C 46.390625 -17.382812 45.519531 -16.378906 44.5625 -15.328125 C 41.238281 -11.742188 38.179688 -9.953125 35.390625 -9.953125 C 33.992188 -9.953125 32.832031 -10.476562 31.90625 -11.53125 C 30.988281 -12.582031 30.53125 -13.9375 30.53125 -15.59375 C 30.53125 -16.820312 30.796875 -18.351562 31.328125 -20.1875 C 30.015625 -18.957031 28.851562 -17.835938 27.84375 -16.828125 C 26.84375 -15.828125 25.816406 -14.609375 24.765625 -13.171875 C 23.722656 -11.734375 22.523438 -9.921875 21.171875 -7.734375 C 19.816406 -5.546875 18.085938 -2.660156 15.984375 0.921875 C 15.109375 0.828125 14.410156 0.757812 13.890625 0.71875 C 13.367188 0.675781 12.757812 0.65625 12.0625 0.65625 C 11.445312 0.65625 10.875 0.675781 10.34375 0.71875 C 9.820312 0.757812 9.082031 0.828125 8.125 0.921875 Z M 18.609375 -16.125 "/></g></g></g><g fill="#ffb800" fill-opacity="1"><g transform="translate(359.413718, 137.824691)"><g><path d="M 40.234375 -14.9375 C 36.035156 -9.695312 31.972656 -5.65625 28.046875 -2.8125 C 24.117188 0.0195312 20.625 1.4375 17.5625 1.4375 C 14.5 1.4375 11.960938 0.367188 9.953125 -1.765625 C 7.953125 -3.910156 6.953125 -6.597656 6.953125 -9.828125 C 6.953125 -17.429688 12.320312 -24.203125 23.0625 -30.140625 C 28.75 -33.203125 33.335938 -34.734375 36.828125 -34.734375 C 38.316406 -34.734375 39.601562 -34.273438 40.6875 -33.359375 C 41.78125 -32.441406 42.328125 -31.328125 42.328125 -30.015625 C 42.328125 -26.953125 40.335938 -24.347656 36.359375 -22.203125 C 32.390625 -20.066406 25.6875 -18.039062 16.25 -16.125 C 15.03125 -14.195312 14.003906 -12.226562 13.171875 -10.21875 C 12.335938 -8.207031 11.921875 -6.503906 11.921875 -5.109375 C 11.921875 -3.453125 12.46875 -2.117188 13.5625 -1.109375 C 14.65625 -0.109375 16.078125 0.390625 17.828125 0.390625 C 20.972656 0.390625 24.75 -1.351562 29.15625 -4.84375 C 33.570312 -8.34375 38.050781 -13.191406 42.59375 -19.390625 C 43.207031 -20.097656 43.644531 -20.453125 43.90625 -20.453125 C 44.082031 -20.453125 44.171875 -20.316406 44.171875 -20.046875 C 44.171875 -19.960938 43.773438 -19.394531 42.984375 -18.34375 Z M 16.78125 -17.03125 C 19.832031 -17.820312 22.710938 -18.804688 25.421875 -19.984375 C 28.128906 -21.160156 30.46875 -22.40625 32.4375 -23.71875 C 34.40625 -25.03125 35.957031 -26.382812 37.09375 -27.78125 C 38.226562 -29.175781 38.796875 -30.53125 38.796875 -31.84375 C 38.796875 -33.238281 38.050781 -33.9375 36.5625 -33.9375 C 35.425781 -33.9375 34.09375 -33.519531 32.5625 -32.6875 C 31.039062 -31.863281 29.40625 -30.707031 27.65625 -29.21875 C 25.90625 -27.738281 24.085938 -25.945312 22.203125 -23.84375 C 20.328125 -21.75 18.519531 -19.476562 16.78125 -17.03125 Z M 16.78125 -17.03125 "/></g></g></g><g fill="#ffb800" fill-opacity="1"><g transform="translate(361.989081, 92.514936)"><g><path d="M 16.234375 -20.828125 L 16.234375 -17.453125 L 10.6875 -17.453125 L 10.6875 0 L 6.5 0 L 6.5 -17.453125 L 0.953125 -17.453125 L 0.953125 -20.828125 Z M 16.234375 -20.828125 "/></g></g></g><g fill="#ffb800" fill-opacity="1"><g transform="translate(379.203304, 92.514936)"><g><path d="M 4.171875 -18.5 C 3.441406 -18.5 2.832031 -18.734375 2.34375 -19.203125 C 1.851562 -19.671875 1.609375 -20.253906 1.609375 -20.953125 C 1.609375 -21.648438 1.851562 -22.226562 2.34375 -22.6875 C 2.832031 -23.15625 3.441406 -23.390625 4.171875 -23.390625 C 4.910156 -23.390625 5.523438 -23.15625 6.015625 -22.6875 C 6.503906 -22.226562 6.75 -21.648438 6.75 -20.953125 C 6.75 -20.253906 6.503906 -19.671875 6.015625 -19.203125 C 5.523438 -18.734375 4.910156 -18.5 4.171875 -18.5 Z M 6.234375 -16.53125 L 6.234375 0 L 2.0625 0 L 2.0625 -16.53125 Z M 6.234375 -16.53125 "/></g></g></g><g fill="#ffb800" fill-opacity="1"><g transform="translate(387.497154, 92.514936)"><g><path d="M 11.1875 0 L 7.796875 -5.140625 L 4.78125 0 L 0.296875 0 L 5.703125 -8.296875 L 0.234375 -16.53125 L 4.953125 -16.53125 L 8.328125 -11.4375 L 11.375 -16.53125 L 15.84375 -16.53125 L 10.421875 -8.296875 L 15.90625 0 Z M 11.1875 0 "/></g></g></g></svg>