<svg xmlns="http://www.w3.org/2000/svg" xmlns:xlink="http://www.w3.org/1999/xlink" width="585" zoomAndPan="magnify" viewBox="0 0 438.75 224.249992" height="299" preserveAspectRatio="xMidYMid meet" version="1.0"><defs><g/></defs><g fill="#d1ad7b" fill-opacity="1"><g transform="translate(30.994476, 142.779647)"><g><path d="M 123.453125 -80.5 C 130.796875 -75.414062 134.46875 -69.519531 134.46875 -62.8125 C 134.46875 -60.007812 133.8125 -57.359375 132.5 -54.859375 C 131.1875 -52.367188 129.421875 -50.21875 127.203125 -48.40625 C 124.984375 -46.59375 122.351562 -45.140625 119.3125 -44.046875 C 116.269531 -42.960938 113.03125 -42.421875 109.59375 -42.421875 C 108.59375 -42.421875 107.570312 -42.488281 106.53125 -42.625 C 105.488281 -42.757812 104.515625 -42.941406 103.609375 -43.171875 C 102.703125 -43.398438 101.953125 -43.648438 101.359375 -43.921875 C 100.773438 -44.191406 100.484375 -44.460938 100.484375 -44.734375 C 100.484375 -45.097656 100.664062 -45.28125 101.03125 -45.28125 C 101.113281 -45.28125 101.203125 -45.253906 101.296875 -45.203125 C 101.390625 -45.160156 101.613281 -45.050781 101.96875 -44.875 C 102.882812 -44.414062 103.972656 -44.070312 105.234375 -43.84375 C 106.503906 -43.625 107.726562 -43.515625 108.90625 -43.515625 C 111.625 -43.515625 114.160156 -44.078125 116.515625 -45.203125 C 118.878906 -46.335938 120.941406 -47.898438 122.703125 -49.890625 C 124.472656 -51.890625 125.878906 -54.179688 126.921875 -56.765625 C 127.960938 -59.347656 128.484375 -62.132812 128.484375 -65.125 C 128.484375 -67.84375 127.894531 -70.445312 126.71875 -72.9375 C 125.539062 -75.4375 123.910156 -77.59375 121.828125 -79.40625 C 118.929688 -77.226562 116.328125 -74.914062 114.015625 -72.46875 C 111.703125 -70.019531 109.390625 -67.070312 107.078125 -63.625 C 104.765625 -60.1875 102.359375 -56.039062 99.859375 -51.1875 C 97.367188 -46.34375 94.492188 -40.429688 91.234375 -33.453125 C 89.515625 -29.910156 87.703125 -26.6875 85.796875 -23.78125 C 83.890625 -20.882812 81.78125 -18.257812 79.46875 -15.90625 C 77.15625 -13.550781 74.617188 -11.398438 71.859375 -9.453125 C 69.097656 -7.503906 65.992188 -5.664062 62.546875 -3.9375 C 53.566406 0.5 45.453125 2.71875 38.203125 2.71875 C 31.222656 2.71875 25.691406 0.972656 21.609375 -2.515625 C 17.535156 -6.003906 15.5 -10.738281 15.5 -16.71875 C 15.5 -21.976562 17.445312 -27.375 21.34375 -32.90625 C 21.164062 -33.445312 21.078125 -33.898438 21.078125 -34.265625 C 21.078125 -34.628906 21.078125 -35.035156 21.078125 -35.484375 C 21.078125 -40.015625 21.984375 -44.476562 23.796875 -48.875 C 25.609375 -53.269531 28.144531 -57.460938 31.40625 -61.453125 C 34.664062 -65.441406 38.492188 -69.132812 42.890625 -72.53125 C 47.296875 -75.9375 52.082031 -78.882812 57.25 -81.375 C 62.414062 -83.863281 67.851562 -85.8125 73.5625 -87.21875 C 79.269531 -88.625 85.070312 -89.328125 90.96875 -89.328125 C 96.945312 -89.328125 102.65625 -88.625 108.09375 -87.21875 C 113.53125 -85.8125 118.289062 -83.796875 122.375 -81.171875 C 126.632812 -83.796875 130.484375 -85.695312 133.921875 -86.875 C 137.367188 -88.0625 140.816406 -88.65625 144.265625 -88.65625 C 147.078125 -88.65625 149.660156 -88.175781 152.015625 -87.21875 C 154.367188 -86.269531 156.40625 -84.957031 158.125 -83.28125 C 159.851562 -81.601562 161.191406 -79.582031 162.140625 -77.21875 C 163.097656 -74.863281 163.578125 -72.328125 163.578125 -69.609375 C 163.578125 -68.347656 163.53125 -67.082031 163.4375 -65.8125 C 163.34375 -64.539062 163.179688 -63.40625 162.953125 -62.40625 C 162.734375 -61.40625 162.507812 -60.585938 162.28125 -59.953125 C 162.050781 -59.328125 161.800781 -59.015625 161.53125 -59.015625 C 161.257812 -59.015625 161.125 -59.191406 161.125 -59.546875 C 161.125 -59.910156 161.171875 -60.273438 161.265625 -60.640625 C 161.710938 -62.273438 162.003906 -63.679688 162.140625 -64.859375 C 162.273438 -66.035156 162.34375 -67.347656 162.34375 -68.796875 C 162.34375 -74.503906 160.6875 -79.035156 157.375 -82.390625 C 154.070312 -85.742188 149.609375 -87.421875 143.984375 -87.421875 C 140.816406 -87.421875 137.554688 -86.851562 134.203125 -85.71875 C 130.847656 -84.59375 127.265625 -82.851562 123.453125 -80.5 Z M 120.734375 -80.21875 C 117.378906 -82.664062 113.070312 -84.59375 107.8125 -86 C 102.5625 -87.40625 96.988281 -88.109375 91.09375 -88.109375 C 83.300781 -88.109375 75.6875 -86.722656 68.25 -83.953125 C 60.820312 -81.191406 54.070312 -77.453125 48 -72.734375 C 41.925781 -68.023438 36.78125 -62.539062 32.5625 -56.28125 C 28.34375 -50.03125 25.601562 -43.460938 24.34375 -36.578125 C 26.519531 -38.835938 29.238281 -40.941406 32.5 -42.890625 C 35.757812 -44.847656 38.929688 -46.234375 42.015625 -47.046875 C 43.734375 -50.128906 45.769531 -52.9375 48.125 -55.46875 C 50.488281 -58.007812 52.960938 -60.1875 55.546875 -62 C 58.128906 -63.8125 60.800781 -65.21875 63.5625 -66.21875 C 66.332031 -67.21875 69.03125 -67.71875 71.65625 -67.71875 C 74.832031 -67.71875 77.4375 -66.695312 79.46875 -64.65625 C 81.507812 -62.613281 82.53125 -59.960938 82.53125 -56.703125 C 82.53125 -52.890625 81.441406 -48.71875 79.265625 -44.1875 C 77.085938 -39.65625 74.097656 -35.210938 70.296875 -30.859375 C 60.503906 -19.984375 50.625 -14.546875 40.65625 -14.546875 C 35.488281 -14.546875 31.25 -15.992188 27.9375 -18.890625 C 24.632812 -21.796875 22.484375 -25.878906 21.484375 -31.140625 C 18.304688 -26.242188 16.71875 -21.484375 16.71875 -16.859375 C 16.71875 -11.148438 18.617188 -6.640625 22.421875 -3.328125 C 26.234375 -0.0234375 31.40625 1.625 37.9375 1.625 C 42.007812 1.625 45.859375 1.035156 49.484375 -0.140625 C 53.117188 -1.316406 56.679688 -3.195312 60.171875 -5.78125 C 63.660156 -8.363281 67.101562 -11.738281 70.5 -15.90625 C 73.894531 -20.070312 77.453125 -25.101562 81.171875 -31 C 85.335938 -37.800781 89.144531 -43.757812 92.59375 -48.875 C 96.039062 -54 99.328125 -58.488281 102.453125 -62.34375 C 105.578125 -66.195312 108.613281 -69.550781 111.5625 -72.40625 C 114.507812 -75.257812 117.566406 -77.863281 120.734375 -80.21875 Z M 24.0625 -32.359375 C 24.0625 -27.191406 25.554688 -23.113281 28.546875 -20.125 C 31.546875 -17.132812 35.582031 -15.640625 40.65625 -15.640625 C 45.914062 -15.640625 51.21875 -17.25 56.5625 -20.46875 C 61.90625 -23.6875 66.890625 -28.285156 71.515625 -34.265625 C 74.691406 -38.253906 77.117188 -42.171875 78.796875 -46.015625 C 80.472656 -49.867188 81.3125 -53.429688 81.3125 -56.703125 C 81.3125 -59.503906 80.445312 -61.859375 78.71875 -63.765625 C 77 -65.671875 74.867188 -66.625 72.328125 -66.625 C 68.160156 -66.625 63.785156 -64.945312 59.203125 -61.59375 C 54.628906 -58.238281 50.484375 -53.707031 46.765625 -48 C 47.316406 -48.175781 47.796875 -48.265625 48.203125 -48.265625 C 48.609375 -48.265625 49.128906 -48.265625 49.765625 -48.265625 C 53.847656 -48.265625 57.085938 -47.359375 59.484375 -45.546875 C 61.890625 -43.734375 63.09375 -41.285156 63.09375 -38.203125 C 63.09375 -36.929688 62.910156 -36.296875 62.546875 -36.296875 C 62.179688 -36.296875 62 -36.75 62 -37.65625 C 62.09375 -40.5625 60.984375 -42.875 58.671875 -44.59375 C 56.359375 -46.320312 53.253906 -47.1875 49.359375 -47.1875 C 48.816406 -47.1875 48.296875 -47.160156 47.796875 -47.109375 C 47.296875 -47.066406 46.726562 -47 46.09375 -46.90625 C 42.914062 -41.289062 41.328125 -36.488281 41.328125 -32.5 C 41.328125 -30.59375 41.847656 -29.003906 42.890625 -27.734375 C 43.941406 -26.460938 45.234375 -25.828125 46.765625 -25.828125 C 47.046875 -25.828125 47.226562 -25.875 47.3125 -25.96875 L 47.71875 -25.96875 C 48 -25.96875 48.140625 -25.832031 48.140625 -25.5625 C 48.140625 -25.101562 47.679688 -24.875 46.765625 -24.875 C 44.503906 -24.875 42.601562 -25.914062 41.0625 -28 C 39.519531 -30.09375 38.75 -32.722656 38.75 -35.890625 C 38.75 -38.972656 39.609375 -42.285156 41.328125 -45.828125 C 38.160156 -44.828125 35.054688 -43.328125 32.015625 -41.328125 C 28.984375 -39.335938 26.332031 -37.03125 24.0625 -34.40625 Z M 24.0625 -32.359375 "/></g></g></g><g fill="#d1ad7b" fill-opacity="1"><g transform="translate(134.182708, 142.779647)"><g><path d="M 19.3125 -16.71875 C 24.75 -25.507812 27.46875 -30.992188 27.46875 -33.171875 C 27.46875 -34.441406 26.96875 -35.078125 25.96875 -35.078125 C 25.425781 -35.078125 24.675781 -34.691406 23.71875 -33.921875 C 22.769531 -33.148438 21.679688 -32.128906 20.453125 -30.859375 C 19.234375 -29.597656 17.941406 -28.101562 16.578125 -26.375 C 15.222656 -24.65625 13.867188 -22.796875 12.515625 -20.796875 C 11.960938 -20.160156 11.597656 -19.84375 11.421875 -19.84375 C 11.242188 -19.84375 11.15625 -19.984375 11.15625 -20.265625 C 11.15625 -20.441406 11.242188 -20.617188 11.421875 -20.796875 L 12.640625 -22.4375 C 15.722656 -26.875 18.441406 -30.25 20.796875 -32.5625 C 23.160156 -34.875 25.066406 -36.03125 26.515625 -36.03125 C 28.054688 -36.03125 29.320312 -35.394531 30.3125 -34.125 C 31.3125 -32.851562 31.8125 -31.222656 31.8125 -29.234375 C 31.8125 -27.421875 31.40625 -25.472656 30.59375 -23.390625 C 29.78125 -21.304688 28.375 -18.722656 26.375 -15.640625 C 27.644531 -17.179688 28.753906 -18.40625 29.703125 -19.3125 C 30.660156 -20.21875 31.726562 -21.164062 32.90625 -22.15625 C 34.625 -26.144531 36.726562 -29.453125 39.21875 -32.078125 C 41.71875 -34.710938 43.960938 -36.03125 45.953125 -36.03125 C 46.492188 -36.03125 46.96875 -35.847656 47.375 -35.484375 C 47.789062 -35.117188 48 -34.710938 48 -34.265625 C 48 -32.179688 44.914062 -29.144531 38.75 -25.15625 C 38.019531 -24.695312 37.289062 -24.238281 36.5625 -23.78125 C 35.84375 -23.332031 35.125 -22.882812 34.40625 -22.4375 L 33.578125 -21.75 C 32.941406 -19.757812 32.625 -18.082031 32.625 -16.71875 C 32.625 -15 33.007812 -13.640625 33.78125 -12.640625 C 34.550781 -11.648438 35.570312 -11.15625 36.84375 -11.15625 C 38.382812 -11.15625 40.195312 -11.921875 42.28125 -13.453125 C 44.363281 -14.992188 46.316406 -17.082031 48.140625 -19.71875 C 49.046875 -20.71875 49.585938 -21.21875 49.765625 -21.21875 C 50.035156 -21.21875 50.171875 -21.078125 50.171875 -20.796875 C 50.171875 -20.617188 49.757812 -20.03125 48.9375 -19.03125 C 48.125 -18.039062 47.222656 -17 46.234375 -15.90625 C 42.785156 -12.1875 39.613281 -10.328125 36.71875 -10.328125 C 35.257812 -10.328125 34.054688 -10.867188 33.109375 -11.953125 C 32.160156 -13.046875 31.6875 -14.457031 31.6875 -16.1875 C 31.6875 -17.445312 31.957031 -19.03125 32.5 -20.9375 C 31.132812 -19.664062 29.929688 -18.507812 28.890625 -17.46875 C 27.847656 -16.425781 26.78125 -15.15625 25.6875 -13.65625 C 24.601562 -12.164062 23.359375 -10.285156 21.953125 -8.015625 C 20.546875 -5.753906 18.757812 -2.765625 16.59375 0.953125 C 15.6875 0.859375 14.957031 0.789062 14.40625 0.75 C 13.863281 0.707031 13.234375 0.6875 12.515625 0.6875 C 11.878906 0.6875 11.285156 0.707031 10.734375 0.75 C 10.191406 0.789062 9.425781 0.859375 8.4375 0.953125 Z M 19.3125 -16.71875 "/></g></g></g><g fill="#d1ad7b" fill-opacity="1"><g transform="translate(171.977604, 142.779647)"><g><path d="M 41.75 -15.5 C 37.394531 -10.0625 33.175781 -5.867188 29.09375 -2.921875 C 25.019531 0.0234375 21.394531 1.5 18.21875 1.5 C 15.039062 1.5 12.410156 0.390625 10.328125 -1.828125 C 8.242188 -4.054688 7.203125 -6.847656 7.203125 -10.203125 C 7.203125 -18.085938 12.78125 -25.109375 23.9375 -31.265625 C 29.820312 -34.441406 34.578125 -36.03125 38.203125 -36.03125 C 39.742188 -36.03125 41.082031 -35.550781 42.21875 -34.59375 C 43.351562 -33.644531 43.921875 -32.492188 43.921875 -31.140625 C 43.921875 -27.960938 41.859375 -25.265625 37.734375 -23.046875 C 33.609375 -20.828125 26.648438 -18.71875 16.859375 -16.71875 C 15.585938 -14.726562 14.519531 -12.691406 13.65625 -10.609375 C 12.800781 -8.523438 12.375 -6.753906 12.375 -5.296875 C 12.375 -3.578125 12.9375 -2.195312 14.0625 -1.15625 C 15.195312 -0.113281 16.671875 0.40625 18.484375 0.40625 C 21.753906 0.40625 25.675781 -1.40625 30.25 -5.03125 C 34.832031 -8.65625 39.476562 -13.6875 44.1875 -20.125 C 44.820312 -20.851562 45.273438 -21.21875 45.546875 -21.21875 C 45.734375 -21.21875 45.828125 -21.078125 45.828125 -20.796875 C 45.828125 -20.710938 45.414062 -20.125 44.59375 -19.03125 Z M 17.40625 -17.671875 C 20.570312 -18.492188 23.5625 -19.515625 26.375 -20.734375 C 29.1875 -21.960938 31.613281 -23.253906 33.65625 -24.609375 C 35.695312 -25.972656 37.304688 -27.378906 38.484375 -28.828125 C 39.660156 -30.273438 40.25 -31.679688 40.25 -33.046875 C 40.25 -34.492188 39.476562 -35.21875 37.9375 -35.21875 C 36.757812 -35.21875 35.375 -34.785156 33.78125 -33.921875 C 32.195312 -33.054688 30.5 -31.851562 28.6875 -30.3125 C 26.875 -28.78125 24.992188 -26.925781 23.046875 -24.75 C 21.097656 -22.570312 19.21875 -20.210938 17.40625 -17.671875 Z M 17.40625 -17.671875 "/></g></g></g><g fill="#d1ad7b" fill-opacity="1"><g transform="translate(205.422008, 142.779647)"><g><path d="M 17.8125 -14 C 21.164062 -19.257812 23.632812 -23.429688 25.21875 -26.515625 C 26.8125 -29.597656 27.609375 -31.773438 27.609375 -33.046875 C 27.609375 -34.398438 27.109375 -35.078125 26.109375 -35.078125 C 23.929688 -35.078125 19.441406 -30.316406 12.640625 -20.796875 C 12.097656 -20.160156 11.738281 -19.84375 11.5625 -19.84375 C 11.375 -19.84375 11.28125 -19.984375 11.28125 -20.265625 C 11.28125 -20.347656 11.460938 -20.640625 11.828125 -21.140625 C 12.191406 -21.640625 12.664062 -22.296875 13.25 -23.109375 C 13.84375 -23.929688 14.5 -24.816406 15.21875 -25.765625 C 15.945312 -26.710938 16.675781 -27.640625 17.40625 -28.546875 C 19.664062 -31.453125 21.453125 -33.425781 22.765625 -34.46875 C 24.085938 -35.507812 25.382812 -36.03125 26.65625 -36.03125 C 28.101562 -36.03125 29.320312 -35.347656 30.3125 -33.984375 C 31.3125 -32.628906 31.8125 -31.046875 31.8125 -29.234375 C 31.8125 -26.691406 30.5 -23.109375 27.875 -18.484375 C 30.132812 -21.753906 32.125 -24.519531 33.84375 -26.78125 C 35.570312 -29.050781 37.140625 -30.863281 38.546875 -32.21875 C 39.953125 -33.582031 41.21875 -34.554688 42.34375 -35.140625 C 43.476562 -35.734375 44.59375 -36.03125 45.6875 -36.03125 C 47.5 -36.03125 49.015625 -35.28125 50.234375 -33.78125 C 51.460938 -32.289062 52.078125 -30.410156 52.078125 -28.140625 C 52.078125 -26.597656 51.847656 -25.191406 51.390625 -23.921875 C 50.941406 -22.660156 49.992188 -20.847656 48.546875 -18.484375 C 53.253906 -25.015625 57.015625 -29.570312 59.828125 -32.15625 C 62.640625 -34.738281 65.175781 -36.03125 67.4375 -36.03125 C 69.34375 -36.03125 70.953125 -35.210938 72.265625 -33.578125 C 73.578125 -31.953125 74.234375 -29.960938 74.234375 -27.609375 C 74.234375 -26.515625 74.140625 -25.535156 73.953125 -24.671875 C 73.773438 -23.816406 73.367188 -22.753906 72.734375 -21.484375 C 72.109375 -20.210938 71.203125 -18.644531 70.015625 -16.78125 C 68.835938 -14.925781 67.253906 -12.503906 65.265625 -9.515625 C 63.992188 -7.703125 63.128906 -6.273438 62.671875 -5.234375 C 62.222656 -4.191406 62 -3.171875 62 -2.171875 C 62 -0.359375 62.90625 0.546875 64.71875 0.546875 C 66.351562 0.546875 68.53125 -0.789062 71.25 -3.46875 C 73.96875 -6.144531 77.503906 -10.382812 81.859375 -16.1875 L 83.890625 -19.03125 L 85.109375 -20.53125 C 85.296875 -20.988281 85.523438 -21.21875 85.796875 -21.21875 C 86.066406 -21.21875 86.203125 -21.078125 86.203125 -20.796875 C 86.203125 -20.617188 85.976562 -20.257812 85.53125 -19.71875 L 82.671875 -15.765625 C 78.222656 -9.691406 74.546875 -5.296875 71.640625 -2.578125 C 68.742188 0.140625 66.253906 1.5 64.171875 1.5 C 62.085938 1.5 60.390625 0.726562 59.078125 -0.8125 C 57.765625 -2.351562 57.109375 -4.347656 57.109375 -6.796875 C 57.109375 -7.796875 57.175781 -8.703125 57.3125 -9.515625 C 57.445312 -10.328125 57.785156 -11.253906 58.328125 -12.296875 C 58.867188 -13.347656 59.613281 -14.617188 60.5625 -16.109375 C 61.519531 -17.609375 62.816406 -19.535156 64.453125 -21.890625 C 66.535156 -24.785156 67.984375 -27.003906 68.796875 -28.546875 C 69.617188 -30.085938 70.03125 -31.359375 70.03125 -32.359375 C 70.03125 -34.171875 69.117188 -35.078125 67.296875 -35.078125 C 65.765625 -35.078125 64.046875 -34.375 62.140625 -32.96875 C 60.234375 -31.5625 58.054688 -29.40625 55.609375 -26.5 C 53.160156 -23.601562 50.414062 -19.890625 47.375 -15.359375 C 44.34375 -10.828125 40.96875 -5.390625 37.25 0.953125 C 36.53125 0.773438 35.921875 0.6875 35.421875 0.6875 C 34.921875 0.6875 34.304688 0.6875 33.578125 0.6875 C 32.765625 0.6875 32.039062 0.6875 31.40625 0.6875 C 30.769531 0.6875 29.957031 0.773438 28.96875 0.953125 L 38.34375 -14 C 41.695312 -19.4375 44.078125 -23.492188 45.484375 -26.171875 C 46.890625 -28.847656 47.59375 -30.820312 47.59375 -32.09375 C 47.59375 -34.082031 46.773438 -35.078125 45.140625 -35.078125 C 43.867188 -35.078125 42.191406 -34.144531 40.109375 -32.28125 C 38.023438 -30.425781 35.710938 -27.867188 33.171875 -24.609375 C 30.640625 -21.347656 27.941406 -17.519531 25.078125 -13.125 C 22.222656 -8.726562 19.4375 -4.035156 16.71875 0.953125 C 16 0.773438 15.363281 0.6875 14.8125 0.6875 C 14.269531 0.6875 13.59375 0.6875 12.78125 0.6875 C 11.96875 0.6875 11.265625 0.6875 10.671875 0.6875 C 10.085938 0.6875 9.296875 0.773438 8.296875 0.953125 Z M 17.8125 -14 "/></g></g></g><g fill="#d1ad7b" fill-opacity="1"><g transform="translate(279.380372, 142.779647)"><g><path d="M 13.328125 -10.734375 C 11.148438 -7.296875 10.0625 -4.535156 10.0625 -2.453125 C 10.0625 -0.453125 11.101562 0.546875 13.1875 0.546875 C 15.269531 0.546875 17.988281 -1.175781 21.34375 -4.625 C 24.695312 -8.070312 28.910156 -13.375 33.984375 -20.53125 C 34.171875 -20.988281 34.398438 -21.21875 34.671875 -21.21875 C 34.941406 -21.21875 35.078125 -21.078125 35.078125 -20.796875 C 35.078125 -20.617188 34.851562 -20.257812 34.40625 -19.71875 L 31.546875 -15.765625 C 27.097656 -9.609375 23.398438 -5.191406 20.453125 -2.515625 C 17.515625 0.160156 14.867188 1.5 12.515625 1.5 C 10.421875 1.5 8.671875 0.773438 7.265625 -0.671875 C 5.867188 -2.128906 5.171875 -3.988281 5.171875 -6.25 C 5.171875 -7.789062 5.488281 -9.398438 6.125 -11.078125 C 6.757812 -12.753906 7.984375 -15.046875 9.796875 -17.953125 L 20.125 -35.484375 C 20.851562 -35.304688 21.421875 -35.191406 21.828125 -35.140625 C 22.234375 -35.097656 22.753906 -35.078125 23.390625 -35.078125 C 24.296875 -35.078125 25.085938 -35.097656 25.765625 -35.140625 C 26.441406 -35.191406 27.328125 -35.304688 28.421875 -35.484375 Z M 31.265625 -51.125 C 32.085938 -51.125 32.769531 -50.851562 33.3125 -50.3125 C 33.851562 -49.769531 34.125 -49.085938 34.125 -48.265625 C 34.125 -46.722656 33.46875 -45.269531 32.15625 -43.90625 C 30.84375 -42.550781 29.414062 -41.875 27.875 -41.875 C 25.875 -41.875 24.875 -42.875 24.875 -44.875 C 24.875 -46.414062 25.554688 -47.84375 26.921875 -49.15625 C 28.285156 -50.46875 29.734375 -51.125 31.265625 -51.125 Z M 31.265625 -51.125 "/></g></g></g><g fill="#d1ad7b" fill-opacity="1"><g transform="translate(302.220451, 142.779647)"><g><path d="M 41.75 -15.5 C 37.394531 -10.0625 33.175781 -5.867188 29.09375 -2.921875 C 25.019531 0.0234375 21.394531 1.5 18.21875 1.5 C 15.039062 1.5 12.410156 0.390625 10.328125 -1.828125 C 8.242188 -4.054688 7.203125 -6.847656 7.203125 -10.203125 C 7.203125 -18.085938 12.78125 -25.109375 23.9375 -31.265625 C 29.820312 -34.441406 34.578125 -36.03125 38.203125 -36.03125 C 39.742188 -36.03125 41.082031 -35.550781 42.21875 -34.59375 C 43.351562 -33.644531 43.921875 -32.492188 43.921875 -31.140625 C 43.921875 -27.960938 41.859375 -25.265625 37.734375 -23.046875 C 33.609375 -20.828125 26.648438 -18.71875 16.859375 -16.71875 C 15.585938 -14.726562 14.519531 -12.691406 13.65625 -10.609375 C 12.800781 -8.523438 12.375 -6.753906 12.375 -5.296875 C 12.375 -3.578125 12.9375 -2.195312 14.0625 -1.15625 C 15.195312 -0.113281 16.671875 0.40625 18.484375 0.40625 C 21.753906 0.40625 25.675781 -1.40625 30.25 -5.03125 C 34.832031 -8.65625 39.476562 -13.6875 44.1875 -20.125 C 44.820312 -20.851562 45.273438 -21.21875 45.546875 -21.21875 C 45.734375 -21.21875 45.828125 -21.078125 45.828125 -20.796875 C 45.828125 -20.710938 45.414062 -20.125 44.59375 -19.03125 Z M 17.40625 -17.671875 C 20.570312 -18.492188 23.5625 -19.515625 26.375 -20.734375 C 29.1875 -21.960938 31.613281 -23.253906 33.65625 -24.609375 C 35.695312 -25.972656 37.304688 -27.378906 38.484375 -28.828125 C 39.660156 -30.273438 40.25 -31.679688 40.25 -33.046875 C 40.25 -34.492188 39.476562 -35.21875 37.9375 -35.21875 C 36.757812 -35.21875 35.375 -34.785156 33.78125 -33.921875 C 32.195312 -33.054688 30.5 -31.851562 28.6875 -30.3125 C 26.875 -28.78125 24.992188 -26.925781 23.046875 -24.75 C 21.097656 -22.570312 19.21875 -20.210938 17.40625 -17.671875 Z M 17.40625 -17.671875 "/></g></g></g><g fill="#d1ad7b" fill-opacity="1"><g transform="translate(335.664854, 142.779647)"><g><path d="M 19.3125 -16.71875 C 24.75 -25.507812 27.46875 -30.992188 27.46875 -33.171875 C 27.46875 -34.441406 26.96875 -35.078125 25.96875 -35.078125 C 25.425781 -35.078125 24.675781 -34.691406 23.71875 -33.921875 C 22.769531 -33.148438 21.679688 -32.128906 20.453125 -30.859375 C 19.234375 -29.597656 17.941406 -28.101562 16.578125 -26.375 C 15.222656 -24.65625 13.867188 -22.796875 12.515625 -20.796875 C 11.960938 -20.160156 11.597656 -19.84375 11.421875 -19.84375 C 11.242188 -19.84375 11.15625 -19.984375 11.15625 -20.265625 C 11.15625 -20.441406 11.242188 -20.617188 11.421875 -20.796875 L 12.640625 -22.4375 C 15.722656 -26.875 18.441406 -30.25 20.796875 -32.5625 C 23.160156 -34.875 25.066406 -36.03125 26.515625 -36.03125 C 28.054688 -36.03125 29.320312 -35.394531 30.3125 -34.125 C 31.3125 -32.851562 31.8125 -31.222656 31.8125 -29.234375 C 31.8125 -27.421875 31.40625 -25.472656 30.59375 -23.390625 C 29.78125 -21.304688 28.375 -18.722656 26.375 -15.640625 C 27.644531 -17.179688 28.753906 -18.40625 29.703125 -19.3125 C 30.660156 -20.21875 31.726562 -21.164062 32.90625 -22.15625 C 34.625 -26.144531 36.726562 -29.453125 39.21875 -32.078125 C 41.71875 -34.710938 43.960938 -36.03125 45.953125 -36.03125 C 46.492188 -36.03125 46.96875 -35.847656 47.375 -35.484375 C 47.789062 -35.117188 48 -34.710938 48 -34.265625 C 48 -32.179688 44.914062 -29.144531 38.75 -25.15625 C 38.019531 -24.695312 37.289062 -24.238281 36.5625 -23.78125 C 35.84375 -23.332031 35.125 -22.882812 34.40625 -22.4375 L 33.578125 -21.75 C 32.941406 -19.757812 32.625 -18.082031 32.625 -16.71875 C 32.625 -15 33.007812 -13.640625 33.78125 -12.640625 C 34.550781 -11.648438 35.570312 -11.15625 36.84375 -11.15625 C 38.382812 -11.15625 40.195312 -11.921875 42.28125 -13.453125 C 44.363281 -14.992188 46.316406 -17.082031 48.140625 -19.71875 C 49.046875 -20.71875 49.585938 -21.21875 49.765625 -21.21875 C 50.035156 -21.21875 50.171875 -21.078125 50.171875 -20.796875 C 50.171875 -20.617188 49.757812 -20.03125 48.9375 -19.03125 C 48.125 -18.039062 47.222656 -17 46.234375 -15.90625 C 42.785156 -12.1875 39.613281 -10.328125 36.71875 -10.328125 C 35.257812 -10.328125 34.054688 -10.867188 33.109375 -11.953125 C 32.160156 -13.046875 31.6875 -14.457031 31.6875 -16.1875 C 31.6875 -17.445312 31.957031 -19.03125 32.5 -20.9375 C 31.132812 -19.664062 29.929688 -18.507812 28.890625 -17.46875 C 27.847656 -16.425781 26.78125 -15.15625 25.6875 -13.65625 C 24.601562 -12.164062 23.359375 -10.285156 21.953125 -8.015625 C 20.546875 -5.753906 18.757812 -2.765625 16.59375 0.953125 C 15.6875 0.859375 14.957031 0.789062 14.40625 0.75 C 13.863281 0.707031 13.234375 0.6875 12.515625 0.6875 C 11.878906 0.6875 11.285156 0.707031 10.734375 0.75 C 10.191406 0.789062 9.425781 0.859375 8.4375 0.953125 Z M 19.3125 -16.71875 "/></g></g></g><g fill="#d1ad7b" fill-opacity="1"><g transform="translate(373.45975, 142.779647)"><g><path d="M 41.75 -15.5 C 37.394531 -10.0625 33.175781 -5.867188 29.09375 -2.921875 C 25.019531 0.0234375 21.394531 1.5 18.21875 1.5 C 15.039062 1.5 12.410156 0.390625 10.328125 -1.828125 C 8.242188 -4.054688 7.203125 -6.847656 7.203125 -10.203125 C 7.203125 -18.085938 12.78125 -25.109375 23.9375 -31.265625 C 29.820312 -34.441406 34.578125 -36.03125 38.203125 -36.03125 C 39.742188 -36.03125 41.082031 -35.550781 42.21875 -34.59375 C 43.351562 -33.644531 43.921875 -32.492188 43.921875 -31.140625 C 43.921875 -27.960938 41.859375 -25.265625 37.734375 -23.046875 C 33.609375 -20.828125 26.648438 -18.71875 16.859375 -16.71875 C 15.585938 -14.726562 14.519531 -12.691406 13.65625 -10.609375 C 12.800781 -8.523438 12.375 -6.753906 12.375 -5.296875 C 12.375 -3.578125 12.9375 -2.195312 14.0625 -1.15625 C 15.195312 -0.113281 16.671875 0.40625 18.484375 0.40625 C 21.753906 0.40625 25.675781 -1.40625 30.25 -5.03125 C 34.832031 -8.65625 39.476562 -13.6875 44.1875 -20.125 C 44.820312 -20.851562 45.273438 -21.21875 45.546875 -21.21875 C 45.734375 -21.21875 45.828125 -21.078125 45.828125 -20.796875 C 45.828125 -20.710938 45.414062 -20.125 44.59375 -19.03125 Z M 17.40625 -17.671875 C 20.570312 -18.492188 23.5625 -19.515625 26.375 -20.734375 C 29.1875 -21.960938 31.613281 -23.253906 33.65625 -24.609375 C 35.695312 -25.972656 37.304688 -27.378906 38.484375 -28.828125 C 39.660156 -30.273438 40.25 -31.679688 40.25 -33.046875 C 40.25 -34.492188 39.476562 -35.21875 37.9375 -35.21875 C 36.757812 -35.21875 35.375 -34.785156 33.78125 -33.921875 C 32.195312 -33.054688 30.5 -31.851562 28.6875 -30.3125 C 26.875 -28.78125 24.992188 -26.925781 23.046875 -24.75 C 21.097656 -22.570312 19.21875 -20.210938 17.40625 -17.671875 Z M 17.40625 -17.671875 "/></g></g></g><g fill="#d1ad7b" fill-opacity="1"><g transform="translate(376.131404, 95.775654)"><g><path d="M 16.84375 -21.609375 L 16.84375 -18.109375 L 11.078125 -18.109375 L 11.078125 0 L 6.75 0 L 6.75 -18.109375 L 0.984375 -18.109375 L 0.984375 -21.609375 Z M 16.84375 -21.609375 "/></g></g></g><g fill="#d1ad7b" fill-opacity="1"><g transform="translate(393.989308, 95.775654)"><g><path d="M 4.328125 -19.1875 C 3.566406 -19.1875 2.929688 -19.425781 2.421875 -19.90625 C 1.921875 -20.394531 1.671875 -21.003906 1.671875 -21.734375 C 1.671875 -22.453125 1.921875 -23.050781 2.421875 -23.53125 C 2.929688 -24.019531 3.566406 -24.265625 4.328125 -24.265625 C 5.097656 -24.265625 5.734375 -24.019531 6.234375 -23.53125 C 6.742188 -23.050781 7 -22.453125 7 -21.734375 C 7 -21.003906 6.742188 -20.394531 6.234375 -19.90625 C 5.734375 -19.425781 5.097656 -19.1875 4.328125 -19.1875 Z M 6.46875 -17.140625 L 6.46875 0 L 2.140625 0 L 2.140625 -17.140625 Z M 6.46875 -17.140625 "/></g></g></g><g fill="#d1ad7b" fill-opacity="1"><g transform="translate(402.593286, 95.775654)"><g><path d="M 11.609375 0 L 8.078125 -5.328125 L 4.953125 0 L 0.3125 0 L 5.90625 -8.609375 L 0.25 -17.140625 L 5.140625 -17.140625 L 8.640625 -11.859375 L 11.796875 -17.140625 L 16.4375 -17.140625 L 10.796875 -8.609375 L 16.5 0 Z M 11.609375 0 "/></g></g></g></svg>